<svg width="200" height="50" viewBox="0 0 200 50" fill="none" xmlns="http://www.w3.org/2000/svg">
  <!-- Shield icon -->
  <path d="M22 6L22 6.01C22 8.01 20.01 10 18 10L18 10C16 10 14 12 14 14L14 14C14 16 12 18 10 18L10 18C10 20 12 22 14 24L14 24C18 28 22 30 22 30C22 30 26 28 30 24L30 24C32 22 34 20 34 18L34 18C32 18 30 16 30 14L30 14C30 12 28 10 26 10L26 10C24.01 10 22 8.01 22 6.01Z" stroke="#6366f1" stroke-width="2" fill="none" stroke-linejoin="round"/>
  <path d="M22 14L22 26M18 20L26 20" stroke="#6366f1" stroke-width="2" stroke-linecap="round"/>
  
  <!-- Text: ZK-PoE -->
  <text x="45" y="30" font-family="system-ui, -apple-system, sans-serif" font-size="24" font-weight="700" fill="white">
    ZK-PoE
  </text>
  
  <!-- Subtitle -->
  <text x="48" y="42" font-family="system-ui, -apple-system, sans-serif" font-size="9" fill="#94a3b8" letter-spacing="1">
    PROOF OF EXISTENCE
  </text>
</svg>
